<svg xmlns="http://www.w3.org/2000/svg" viewBox="0 0 84.92 31.33"><defs><style>.cls-1{fill:#2d2e2e;}.cls-2{fill:#333434;}</style></defs><title>Asset 31</title><g id="Layer_2" data-name="Layer 2"><g id="Layer_1-2" data-name="Layer 1"><path class="cls-1" d="M30.08,24.37H26.43V23.07h3.37c3,0,4.12-1.15,4.12-3V16.95a2.94,2.94,0,0,1-3,1.74H28.69c-2.66,0-3.7-1.6-3.7-4.45V10c0-2.27.68-4.78,3.7-4.78h2.15a3.18,3.18,0,0,1,3.07,1.55V5.27h1.4V20.33C35.32,22.22,34.32,24.37,30.08,24.37ZM33.92,9.15A2.73,2.73,0,0,0,31.2,6.48h-2C27,6.48,26.4,8,26.4,10.2v3.72c0,2.58.82,3.51,2.78,3.51h2.07a2.75,2.75,0,0,0,2.67-3Z"/><path class="cls-1" d="M40.89,2.39h-.43a.73.73,0,0,1-.73-.73V1.23a.73.73,0,0,1,.73-.73h.43a.73.73,0,0,1,.73.73v.44A.71.71,0,0,1,40.89,2.39ZM40,19.05V5.27h1.38V19.05Z"/><path class="cls-1" d="M51,1.31c-1.89,0-2.93.07-2.93,3.07v.89h3.51V6.6H48.12V19.05h-1.4V6.6H44.9V5.27h1.79V4.42C46.69.39,48.47,0,50.8,0h1.5V1.31Z"/><path class="cls-1" d="M57.66,19.05c-3.12,0-3.15-3.39-3.15-4.74V6.62H52.81V5.3h1.71V1.89h1.4V5.3h4.39V6.62H55.91V14c0,2,.22,3.68,2.21,3.68h2.29v1.33Z"/><path class="cls-1" d="M63.89,13v1.6c0,2.49.85,3.22,3,3.22h4.57v1.26H66.7c-3.43,0-4.16-2-4.16-4.55V9.67c0-2.25.7-4.5,3.82-4.5h2.41c2.59,0,3.51,2,3.51,4.45V13Zm7-3.51c0-1-.22-3.12-2.37-3.12h-2c-1.84,0-2.66,1.14-2.66,3.17v2.32h7Z"/><path class="cls-1" d="M76.39,13v1.6c0,2.49.85,3.22,3,3.22h4.57v1.26H79.2c-3.43,0-4.16-2-4.16-4.55V9.67c0-2.25.7-4.5,3.82-4.5h2.41c2.59,0,3.51,2,3.51,4.45V13Zm7-3.51c0-1-.22-3.12-2.37-3.12h-2c-1.84,0-2.66,1.14-2.66,3.17v2.32h7Z"/><path class="cls-1" d="M14.6.51H3.95A4,4,0,0,0,0,4.46V15.11a4,4,0,0,0,3.95,3.95H14.6a4,4,0,0,0,3.95-3.95V4.46A4,4,0,0,0,14.6.51ZM3.95,1.89h5L1.38,9.43v-5A2.59,2.59,0,0,1,3.95,1.89ZM17.17,15.11a2.59,2.59,0,0,1-2.57,2.57H3.95a2.59,2.59,0,0,1-2.57-2.57V11.38l9.49-9.49H14.6a2.59,2.59,0,0,1,2.57,2.57Z"/><path class="cls-2" d="M39.42,26.69c1.17,0,1.66.94,1.66,2a3.33,3.33,0,0,1,0,.44h-3c0,1,.39,1.74,1.45,1.74a2.82,2.82,0,0,0,1.35-.39l.17.36a3,3,0,0,1-1.56.45c-1.16,0-1.9-.72-1.9-2.27S38.25,26.69,39.42,26.69Zm1.19,2.09c0-.8-.24-1.67-1.19-1.67s-1.29.71-1.33,1.67Z"/><path class="cls-2" d="M41.55,28.14a4,4,0,0,1,.52-2.23,2.39,2.39,0,0,1,2.16-1,7.25,7.25,0,0,1,1.64.21l-.09.42a7.44,7.44,0,0,0-1.56-.19,1.9,1.9,0,0,0-1.74.79,3.67,3.67,0,0,0-.42,2,3.52,3.52,0,0,0,.5,2.09,1.78,1.78,0,0,0,1.5.67,3.61,3.61,0,0,0,1.46-.33V28.13H46v2.64a4.11,4.11,0,0,1-2,.56,2.23,2.23,0,0,1-1.82-.79A3.82,3.82,0,0,1,41.55,28.14Z"/><path class="cls-2" d="M47.05,25h.48v.75h-.48Zm0,1.76h.48v4.46h-.48Z"/><path class="cls-2" d="M48.87,27.18h-.64v-.34l.64,0v-.64c0-.84.22-1.23,1.13-1.23a5.73,5.73,0,0,1,.69,0l0,.41c-.19,0-.44,0-.64,0-.55,0-.67.16-.67.81v.62h1v.4h-1v4.06h-.48Z"/><path class="cls-2" d="M51.13,27.18h-.64v-.34l.66,0,0-1.35h.41v1.33H53v.4H51.61v2.93c0,.52.09.8.53.8a1.69,1.69,0,0,0,.72-.19l.16.37a2,2,0,0,1-1,.25c-.67,0-.94-.39-.94-1.17Z"/><path class="cls-2" d="M55.13,25h.48v.75h-.48Zm0,1.76h.48v4.46h-.48Z"/><path class="cls-2" d="M56.73,26.78h.41l0,.51a2.59,2.59,0,0,1,1.58-.61,1.28,1.28,0,0,1,1.38,1.43v3.13h-.48V28.16c0-.76-.39-1.05-1-1.05a2.93,2.93,0,0,0-1.49.5v3.63h-.48Z"/><path class="cls-2" d="M60.55,26.78H61a25.4,25.4,0,0,0,1.28,4.06h.09a25.4,25.4,0,0,0,1.28-4.06h.46a23.63,23.63,0,0,1-1.46,4.46H62A23.63,23.63,0,0,1,60.55,26.78Z"/><path class="cls-2" d="M64.72,25h.48v.75h-.48Zm0,1.76h.48v4.46h-.48Z"/><path class="cls-2" d="M66.46,27.18h-.64v-.34l.66,0,0-1.35h.41v1.33h1.34v.4H66.94v2.93c0,.52.09.8.53.8a1.69,1.69,0,0,0,.72-.19l.16.37a2,2,0,0,1-1,.25c-.67,0-.94-.39-.94-1.17Z"/><path class="cls-2" d="M70.17,28.62c.27,0,.89,0,1.22.07V28c0-.71-.49-.88-1.11-.88a5.32,5.32,0,0,0-1.39.21l-.1-.41a5,5,0,0,1,1.47-.23c.81,0,1.61.24,1.61,1.25v3.3h-.41l0-.45a2.42,2.42,0,0,1-1.52.55A1.31,1.31,0,0,1,68.46,30C68.46,29,69.2,28.62,70.17,28.62ZM70,30.95a2.26,2.26,0,0,0,1.39-.5V29.06c-.28,0-1,0-1.17,0-.65,0-1.27.17-1.27.95A.94.94,0,0,0,70,30.95Z"/><path class="cls-2" d="M73.08,27.18h-.64v-.34l.66,0,0-1.35h.41v1.33H74.9v.4H73.56v2.93c0,.52.09.8.53.8a1.69,1.69,0,0,0,.72-.19l.16.37a2,2,0,0,1-1,.25c-.67,0-.94-.39-.94-1.17Z"/><path class="cls-2" d="M75.48,25H76v.75h-.48Zm0,1.76H76v4.46h-.48Z"/><path class="cls-2" d="M78.74,26.69c1.41,0,2,1,2,2.32s-.56,2.32-2,2.32-2-1-2-2.32S77.33,26.69,78.74,26.69Zm0,4.22c1.11,0,1.48-.8,1.48-1.9s-.37-1.9-1.48-1.9-1.48.8-1.48,1.9S77.63,30.91,78.74,30.91Z"/><path class="cls-2" d="M81.51,26.78h.41l0,.51a2.59,2.59,0,0,1,1.58-.61,1.28,1.28,0,0,1,1.38,1.43v3.13h-.48V28.16c0-.76-.39-1.05-1-1.05a2.93,2.93,0,0,0-1.49.5v3.63h-.48Z"/></g></g></svg>