<svg xmlns="http://www.w3.org/2000/svg" viewBox="0 0 451.36 255.12"><title>logo_giftee_for_business_default_line2_RGB</title><g id="レイヤー_2" data-name="レイヤー 2"><g id="レイヤー_1-2" data-name="レイヤー 1"><path d="M91.25,152.39c7.76,0,14-3.44,14-14.13V130.6c-2.06,4.81-8.44,9.81-17.37,9.81-9.72.1-24.14-5.2-24.14-26.78,0-16.39,10.2-26.69,24.14-26.69,9,0,15.11,5.2,17.56,10V88.21H119v48.38c0,17.17-10.89,25.31-27.77,25.31-16.58,0-24.72-7.65-26.29-16.68H78.69C80.17,149.74,83.8,152.39,91.25,152.39Zm.3-21.89c8.93,0,14.23-6.67,14.23-17.07v-1c0-10.11-6.48-15.7-14.23-15.7-8.73,0-14,6.57-14,16.88,0,5.2,1.27,9.32,3.73,12.36A12.74,12.74,0,0,0,91.55,130.5Z"/><rect x="132.76" y="68.2" width="14.62" height="13.25"/><rect x="133.25" y="88.21" width="13.84" height="53.67"/><path d="M167.89,141.89v-44h-7.56V88.21h7.56V80.56c0-11,6.57-16.88,17.86-16.78,1.76,0,2.94,0,4.22.1a15.67,15.67,0,0,1,3.72.49v10.2c-.88-.09-1.66-.19-2.55-.29s-1.76-.1-2.74-.1c-2.26,0-4,.59-5.11,1.77a7.28,7.28,0,0,0-1.67,5.2v7h11.09v9.71H181.62v44H167.89Z"/><path d="M228.53,131.78a25.94,25.94,0,0,0,7.26-1.08V141a34,34,0,0,1-10.89,1.57c-11.58,0-17.08-4.9-17.08-15.5V97.93h-7.55V88.21h7.55V74.77h13.74V88.21h13.05v9.72H221.46v27.18C221.46,130.5,224.41,131.78,228.53,131.78Z"/><path d="M281.51,125.11h12.76c-2.26,11.38-11,18-24.63,18-8.93,0-15.21-2.55-20-7.55C245,130.7,242,123.93,242,115.1c0-17.07,11.38-28.16,27.38-28.16,10.69,0,18.84,5.39,22.56,13.64,2.16,4.9,3,10.59,2.85,17.76H255.31c0,5,.89,7,2.85,9.81,1.77,2.65,6,4.91,11.58,4.91a13.88,13.88,0,0,0,7.85-2.07A12.26,12.26,0,0,0,281.51,125.11ZM269,97c-7.16,0-12.75,4.31-13.24,12.56h25.71C281.42,102,276.41,97,269,97Z"/><path d="M340.39,125.11h12.75c-2.25,11.38-11,18-24.63,18-8.93,0-15.21-2.55-20-7.55-4.61-4.81-7.66-11.58-7.66-20.41,0-17.07,11.39-28.16,27.38-28.16,10.69,0,18.84,5.39,22.57,13.64,2.16,4.9,3,10.59,2.84,17.76H314.19c0,5,.88,7,2.75,9.81,1.76,2.65,6,4.91,11.57,4.91a13.86,13.86,0,0,0,7.85-2.07A11.79,11.79,0,0,0,340.39,125.11ZM327.83,97c-7.17,0-12.76,4.31-13.25,12.56h25.81C340.29,102,335.28,97,327.83,97Z"/><path d="M386.88,81.64c-2.94,1-10.79,3.53-12.76,4a103.62,103.62,0,0,0,1.67-12.46,9.77,9.77,0,0,0-7.06,0,105.66,105.66,0,0,0,1.66,12.46c-2-.49-9.71-3-12.75-4a15.09,15.09,0,0,0-.79,5.89A66.24,66.24,0,0,0,369.22,90a53.52,53.52,0,0,0-10.11,9.32c1.77,1.18,4.71,3.24,7,4.71a79.61,79.61,0,0,1,6.08-11,69.53,69.53,0,0,1,6.08,11c2.26-1.47,5.3-3.43,7-4.71A53.52,53.52,0,0,0,375.1,90a75.22,75.22,0,0,0,12.37-2.45C387.76,86.35,387.47,82.62,386.88,81.64Z" style="fill:#0c6993"/><path d="M169,176.13V174h2.51v-3.16c0-3.16,2.06-4.78,5-4.78a11.55,11.55,0,0,1,1.93.17v2.22a12.92,12.92,0,0,0-1.75-.1,2.2,2.2,0,0,0-2.37,2.52V174H178v2.13h-3.71v14.8h-2.82v-14.8Z"/><path d="M187.25,191.34c-4.77,0-8.21-3.4-8.21-8.85s3.44-8.89,8.21-8.89,8.21,3.43,8.21,8.89S192,191.34,187.25,191.34Zm0-2.26c3.37,0,5.4-2.52,5.4-6.59s-2-6.63-5.4-6.63-5.39,2.55-5.39,6.63S183.89,189.08,187.25,189.08Z"/><path d="M208.65,176.33a7.15,7.15,0,0,0-1.48-.14c-2.75,0-5.25,2.12-5.25,6.4v8.34h-2.85V174h2.74v4a5.62,5.62,0,0,1,5.5-4.38,5.86,5.86,0,0,1,1.34.14Z"/><path d="M217.13,190.93v-24h8.62c5.46,0,8.62,2.22,8.62,6.43a5.64,5.64,0,0,1-3.81,5.12c3,.74,4.91,2.93,4.91,5.75,0,4.41-3.19,6.73-8.62,6.73Zm8.79-13.42c3.64,0,5.46-1.52,5.46-4.14s-1.78-4.11-5.42-4.11h-5.91v8.25Zm-5.87,11.07h6.66c3.75,0,5.81-1.62,5.81-4.38s-2.13-4.44-5.88-4.44h-6.59Z"/><path d="M250.44,190.93v-3.06a5.62,5.62,0,0,1-5.49,3.47c-3.92,0-6.12-2.32-6.12-6.43V174h2.89v10.37c0,3.13,1.34,4.78,4.05,4.78s4.57-1.75,4.57-5.82V174h2.89v16.93Z"/><path d="M258.68,185.92c.21,2.32,2.41,3.3,4.74,3.3s4.09-1.08,4.09-2.9c0-1.24-.82-2-3-2.45l-3.06-.61c-2.78-.5-4.81-1.61-4.81-4.58s2.61-5.08,6.43-5.08c4,0,6.42,1.68,6.76,4.88h-2.64c-.21-1.72-1.75-2.73-4.12-2.73s-3.78,1.12-3.78,2.77c0,1.44,1,2,3,2.42l3.44.64c2.81.54,4.46,1.88,4.46,4.61,0,3-2.85,5.15-6.73,5.15-4.12,0-7.21-1.79-7.52-5.42Z"/><path d="M273.76,167.07H277v3.4h-3.23ZM274,174h2.85v16.93H274Z"/><path d="M284.34,177.1a5.86,5.86,0,0,1,5.63-3.5c3.88,0,6.18,2.39,6.18,6.43v10.9H293.3V180.64c0-3.13-1.41-4.75-4.12-4.75s-4.74,1.65-4.74,5.72v9.32h-2.85V174h2.75Z"/><path d="M307.38,191.34c-4.88,0-8.31-3.33-8.31-8.79s3.54-9,8.14-9c5.12,0,7.42,4,7.42,8.35v1.11H301.85c.14,3.9,2.23,6.06,5.53,6.06a4.31,4.31,0,0,0,4.47-3.17h2.68C313.74,189.55,310.75,191.34,307.38,191.34ZM302,181h9.89c-.07-2.93-1.55-5.18-4.64-5.18C304.5,175.86,302.44,177.57,302,181Z"/><path d="M319.13,185.92c.2,2.32,2.4,3.3,4.74,3.3s4.08-1.08,4.08-2.9c0-1.24-.82-2-3-2.45l-3.06-.61c-2.78-.5-4.81-1.61-4.81-4.58s2.62-5.08,6.43-5.08c4,0,6.42,1.68,6.76,4.88h-2.64c-.21-1.72-1.75-2.73-4.12-2.73s-3.78,1.12-3.78,2.77c0,1.44,1,2,3,2.42l3.44.64c2.81.54,4.46,1.88,4.46,4.61,0,3-2.85,5.15-6.73,5.15-4.12,0-7.21-1.79-7.52-5.42Z"/><path d="M335.6,185.92c.2,2.32,2.4,3.3,4.74,3.3s4.08-1.08,4.08-2.9c0-1.24-.82-2-3-2.45l-3.06-.61c-2.78-.5-4.8-1.61-4.8-4.58s2.61-5.08,6.42-5.08c4,0,6.42,1.68,6.76,4.88h-2.64c-.21-1.72-1.75-2.73-4.12-2.73s-3.78,1.12-3.78,2.77c0,1.44,1,2,3,2.42l3.44.64c2.81.54,4.46,1.88,4.46,4.61,0,3-2.85,5.15-6.73,5.15-4.12,0-7.21-1.79-7.52-5.42Z"/><rect width="451.36" height="255.12" style="fill:none"/></g></g></svg>
